<svg width="175" height="175" viewBox="0 0 175 175" fill="none" xmlns="http://www.w3.org/2000/svg">
<circle cx="87.5" cy="87.5" r="87.5" fill="#22B0FF"/>
<path d="M14.7734 87.9922L16.749 81.0469H17.7061L17.1523 83.7471L15.0264 91H14.0762L14.7734 87.9922ZM12.7295 81.0469L14.3018 87.8555L14.7734 91H13.8301L11.417 81.0469H12.7295ZM20.2627 87.8486L21.8008 81.0469H23.1201L20.7139 91H19.7705L20.2627 87.8486ZM17.8496 81.0469L19.7705 87.9922L20.4678 91H19.5176L17.4668 83.7471L16.9062 81.0469H17.8496ZM28.5205 89.7354V85.9277C28.5205 85.6361 28.4613 85.3831 28.3428 85.1689C28.2288 84.9502 28.0557 84.7816 27.8232 84.6631C27.5908 84.5446 27.3037 84.4854 26.9619 84.4854C26.6429 84.4854 26.3626 84.54 26.1211 84.6494C25.8841 84.7588 25.6973 84.9023 25.5605 85.0801C25.4284 85.2578 25.3623 85.4492 25.3623 85.6543H24.0977C24.0977 85.39 24.166 85.1279 24.3027 84.8682C24.4395 84.6084 24.6354 84.3737 24.8906 84.1641C25.1504 83.9499 25.4603 83.7812 25.8203 83.6582C26.1849 83.5306 26.5905 83.4668 27.0371 83.4668C27.5749 83.4668 28.0488 83.5579 28.459 83.7402C28.8737 83.9225 29.1973 84.1982 29.4297 84.5674C29.6667 84.932 29.7852 85.39 29.7852 85.9414V89.3867C29.7852 89.6328 29.8057 89.8949 29.8467 90.1729C29.8923 90.4508 29.9583 90.6901 30.0449 90.8906V91H28.7256C28.6618 90.8542 28.6117 90.6605 28.5752 90.4189C28.5387 90.1729 28.5205 89.945 28.5205 89.7354ZM28.7393 86.5156L28.7529 87.4043H27.4746C27.1146 87.4043 26.7933 87.4339 26.5107 87.4932C26.2282 87.5479 25.9912 87.6322 25.7998 87.7461C25.6084 87.86 25.4626 88.0036 25.3623 88.1768C25.262 88.3454 25.2119 88.5436 25.2119 88.7715C25.2119 89.0039 25.2643 89.2158 25.3691 89.4072C25.474 89.5986 25.6312 89.7513 25.8408 89.8652C26.055 89.9746 26.3171 90.0293 26.627 90.0293C27.0143 90.0293 27.3561 89.9473 27.6523 89.7832C27.9486 89.6191 28.1833 89.4186 28.3564 89.1816C28.5342 88.9447 28.6299 88.7145 28.6436 88.4912L29.1836 89.0996C29.1517 89.291 29.0651 89.5029 28.9238 89.7354C28.7826 89.9678 28.5934 90.1911 28.3564 90.4053C28.124 90.6149 27.846 90.7904 27.5225 90.9316C27.2035 91.0684 26.8434 91.1367 26.4424 91.1367C25.9411 91.1367 25.5013 91.0387 25.123 90.8428C24.7493 90.6468 24.4577 90.3848 24.248 90.0566C24.043 89.724 23.9404 89.3525 23.9404 88.9424C23.9404 88.5459 24.0179 88.1973 24.1729 87.8965C24.3278 87.5911 24.5511 87.3382 24.8428 87.1377C25.1344 86.9326 25.4854 86.7777 25.8955 86.6729C26.3057 86.568 26.7637 86.5156 27.2695 86.5156H28.7393ZM36.0811 89.0381C36.0811 88.8558 36.04 88.6872 35.958 88.5322C35.8805 88.3727 35.7188 88.2292 35.4727 88.1016C35.2311 87.9694 34.8665 87.8555 34.3789 87.7598C33.9688 87.6732 33.5973 87.5706 33.2646 87.4521C32.9365 87.3337 32.6562 87.1901 32.4238 87.0215C32.196 86.8529 32.0205 86.6546 31.8975 86.4268C31.7744 86.1989 31.7129 85.9323 31.7129 85.627C31.7129 85.3353 31.7767 85.0596 31.9043 84.7998C32.0365 84.54 32.221 84.3099 32.458 84.1094C32.6995 83.9089 32.9889 83.7516 33.3262 83.6377C33.6634 83.5238 34.0394 83.4668 34.4541 83.4668C35.0465 83.4668 35.5524 83.5716 35.9717 83.7812C36.391 83.9909 36.7122 84.2712 36.9355 84.6221C37.1589 84.9684 37.2705 85.3535 37.2705 85.7773H36.0059C36.0059 85.5723 35.9443 85.374 35.8213 85.1826C35.7028 84.9867 35.5273 84.8249 35.2949 84.6973C35.0671 84.5697 34.7868 84.5059 34.4541 84.5059C34.1032 84.5059 33.8184 84.5605 33.5996 84.6699C33.3854 84.7747 33.2282 84.9092 33.1279 85.0732C33.0322 85.2373 32.9844 85.4105 32.9844 85.5928C32.9844 85.7295 33.0072 85.8525 33.0527 85.9619C33.1029 86.0667 33.1895 86.1647 33.3125 86.2559C33.4355 86.3424 33.6087 86.4245 33.832 86.502C34.0553 86.5794 34.3402 86.6569 34.6865 86.7344C35.2926 86.8711 35.7917 87.0352 36.1836 87.2266C36.5755 87.418 36.8672 87.6527 37.0586 87.9307C37.25 88.2087 37.3457 88.5459 37.3457 88.9424C37.3457 89.266 37.2773 89.5622 37.1406 89.8311C37.0085 90.0999 36.8148 90.3324 36.5596 90.5283C36.3089 90.7197 36.0081 90.8701 35.6572 90.9795C35.3109 91.0843 34.9212 91.1367 34.4883 91.1367C33.8366 91.1367 33.2852 91.0205 32.834 90.7881C32.3828 90.5557 32.041 90.2549 31.8086 89.8857C31.5762 89.5166 31.46 89.127 31.46 88.7168H32.7314C32.7497 89.0632 32.8499 89.3389 33.0322 89.5439C33.2145 89.7445 33.4378 89.888 33.7021 89.9746C33.9665 90.0566 34.2285 90.0977 34.4883 90.0977C34.8346 90.0977 35.124 90.0521 35.3564 89.9609C35.5934 89.8698 35.7734 89.7445 35.8965 89.585C36.0195 89.4255 36.0811 89.2432 36.0811 89.0381ZM40.2715 80.5V91H39.0068V80.5H40.2715ZM39.9707 87.0215L39.4443 87.001C39.4489 86.4951 39.5241 86.028 39.6699 85.5996C39.8158 85.1667 40.0208 84.7907 40.2852 84.4717C40.5495 84.1527 40.8639 83.9066 41.2285 83.7334C41.5977 83.5557 42.0055 83.4668 42.4521 83.4668C42.8167 83.4668 43.1449 83.5169 43.4365 83.6172C43.7282 83.7129 43.9766 83.8678 44.1816 84.082C44.3913 84.2962 44.5508 84.5742 44.6602 84.916C44.7695 85.2533 44.8242 85.6657 44.8242 86.1533V91H43.5527V86.1396C43.5527 85.7523 43.4958 85.4424 43.3818 85.21C43.2679 84.973 43.1016 84.8021 42.8828 84.6973C42.6641 84.5879 42.3952 84.5332 42.0762 84.5332C41.7617 84.5332 41.4746 84.5993 41.2148 84.7314C40.9596 84.8636 40.7386 85.0459 40.5518 85.2783C40.3695 85.5107 40.2259 85.7773 40.1211 86.0781C40.0208 86.3743 39.9707 86.6888 39.9707 87.0215ZM48.0918 83.6035V91H46.8203V83.6035H48.0918ZM46.7246 81.6416C46.7246 81.4365 46.7861 81.2633 46.9092 81.1221C47.0368 80.9808 47.2236 80.9102 47.4697 80.9102C47.7113 80.9102 47.8958 80.9808 48.0234 81.1221C48.1556 81.2633 48.2217 81.4365 48.2217 81.6416C48.2217 81.8376 48.1556 82.0062 48.0234 82.1475C47.8958 82.2842 47.7113 82.3525 47.4697 82.3525C47.2236 82.3525 47.0368 82.2842 46.9092 82.1475C46.7861 82.0062 46.7246 81.8376 46.7246 81.6416ZM51.3867 85.1826V91H50.1221V83.6035H51.3184L51.3867 85.1826ZM51.0859 87.0215L50.5596 87.001C50.5641 86.4951 50.6393 86.028 50.7852 85.5996C50.931 85.1667 51.1361 84.7907 51.4004 84.4717C51.6647 84.1527 51.9792 83.9066 52.3438 83.7334C52.7129 83.5557 53.1208 83.4668 53.5674 83.4668C53.932 83.4668 54.2601 83.5169 54.5518 83.6172C54.8434 83.7129 55.0918 83.8678 55.2969 84.082C55.5065 84.2962 55.666 84.5742 55.7754 84.916C55.8848 85.2533 55.9395 85.6657 55.9395 86.1533V91H54.668V86.1396C54.668 85.7523 54.611 85.4424 54.4971 85.21C54.3831 84.973 54.2168 84.8021 53.998 84.6973C53.7793 84.5879 53.5104 84.5332 53.1914 84.5332C52.877 84.5332 52.5898 84.5993 52.3301 84.7314C52.0749 84.8636 51.8538 85.0459 51.667 85.2783C51.4847 85.5107 51.3411 85.7773 51.2363 86.0781C51.1361 86.3743 51.0859 86.6888 51.0859 87.0215ZM62.6523 83.6035H63.8008V90.8428C63.8008 91.4945 63.6686 92.0505 63.4043 92.5107C63.14 92.971 62.7708 93.3197 62.2969 93.5566C61.8275 93.7982 61.2852 93.9189 60.6699 93.9189C60.4147 93.9189 60.1139 93.8779 59.7676 93.7959C59.4258 93.7184 59.0885 93.584 58.7559 93.3926C58.4277 93.2057 58.152 92.9528 57.9287 92.6338L58.5918 91.8818C58.9017 92.2555 59.2253 92.5153 59.5625 92.6611C59.9043 92.807 60.2415 92.8799 60.5742 92.8799C60.9753 92.8799 61.3216 92.8047 61.6133 92.6543C61.9049 92.5039 62.1305 92.2806 62.29 91.9844C62.4541 91.6927 62.5361 91.3327 62.5361 90.9043V85.2305L62.6523 83.6035ZM57.5596 87.3838V87.2402C57.5596 86.6751 57.6257 86.1624 57.7578 85.7021C57.8945 85.2373 58.0882 84.8385 58.3389 84.5059C58.5941 84.1732 58.9017 83.918 59.2617 83.7402C59.6217 83.5579 60.0273 83.4668 60.4785 83.4668C60.9434 83.4668 61.349 83.5488 61.6953 83.7129C62.0462 83.8724 62.3424 84.1071 62.584 84.417C62.8301 84.7223 63.0238 85.0915 63.165 85.5244C63.3063 85.9574 63.4043 86.4473 63.459 86.9941V87.623C63.4089 88.1654 63.3109 88.653 63.165 89.0859C63.0238 89.5189 62.8301 89.888 62.584 90.1934C62.3424 90.4987 62.0462 90.7334 61.6953 90.8975C61.3444 91.057 60.9342 91.1367 60.4648 91.1367C60.0228 91.1367 59.6217 91.0433 59.2617 90.8564C58.9062 90.6696 58.6009 90.4076 58.3457 90.0703C58.0905 89.7331 57.8945 89.3366 57.7578 88.8809C57.6257 88.4206 57.5596 87.9215 57.5596 87.3838ZM58.8242 87.2402V87.3838C58.8242 87.7529 58.8607 88.0993 58.9336 88.4229C59.0111 88.7464 59.1273 89.0312 59.2822 89.2773C59.4417 89.5234 59.6445 89.7171 59.8906 89.8584C60.1367 89.9951 60.4307 90.0635 60.7725 90.0635C61.1917 90.0635 61.5381 89.9746 61.8115 89.7969C62.085 89.6191 62.3014 89.3844 62.4609 89.0928C62.625 88.8011 62.7526 88.4844 62.8438 88.1426V86.4951C62.7936 86.2445 62.7161 86.0029 62.6113 85.7705C62.5111 85.5335 62.3789 85.3239 62.2148 85.1416C62.0553 84.9548 61.8571 84.8066 61.6201 84.6973C61.3831 84.5879 61.1051 84.5332 60.7861 84.5332C60.4398 84.5332 60.1413 84.6061 59.8906 84.752C59.6445 84.8932 59.4417 85.0892 59.2822 85.3398C59.1273 85.5859 59.0111 85.873 58.9336 86.2012C58.8607 86.5247 58.8242 86.8711 58.8242 87.2402ZM69.8027 81.0469H71.0811L74.3418 89.1611L77.5957 81.0469H78.8809L74.834 91H73.8359L69.8027 81.0469ZM69.3857 81.0469H70.5137L70.6982 87.1172V91H69.3857V81.0469ZM78.1631 81.0469H79.291V91H77.9785V87.1172L78.1631 81.0469ZM85.7783 89.7354V85.9277C85.7783 85.6361 85.7191 85.3831 85.6006 85.1689C85.4867 84.9502 85.3135 84.7816 85.0811 84.6631C84.8486 84.5446 84.5615 84.4854 84.2197 84.4854C83.9007 84.4854 83.6204 84.54 83.3789 84.6494C83.1419 84.7588 82.9551 84.9023 82.8184 85.0801C82.6862 85.2578 82.6201 85.4492 82.6201 85.6543H81.3555C81.3555 85.39 81.4238 85.1279 81.5605 84.8682C81.6973 84.6084 81.8932 84.3737 82.1484 84.1641C82.4082 83.9499 82.7181 83.7812 83.0781 83.6582C83.4427 83.5306 83.8483 83.4668 84.2949 83.4668C84.8327 83.4668 85.3066 83.5579 85.7168 83.7402C86.1315 83.9225 86.4551 84.1982 86.6875 84.5674C86.9245 84.932 87.043 85.39 87.043 85.9414V89.3867C87.043 89.6328 87.0635 89.8949 87.1045 90.1729C87.1501 90.4508 87.2161 90.6901 87.3027 90.8906V91H85.9834C85.9196 90.8542 85.8695 90.6605 85.833 90.4189C85.7965 90.1729 85.7783 89.945 85.7783 89.7354ZM85.9971 86.5156L86.0107 87.4043H84.7324C84.3724 87.4043 84.0511 87.4339 83.7686 87.4932C83.486 87.5479 83.249 87.6322 83.0576 87.7461C82.8662 87.86 82.7204 88.0036 82.6201 88.1768C82.5199 88.3454 82.4697 88.5436 82.4697 88.7715C82.4697 89.0039 82.5221 89.2158 82.627 89.4072C82.7318 89.5986 82.889 89.7513 83.0986 89.8652C83.3128 89.9746 83.5749 90.0293 83.8848 90.0293C84.2721 90.0293 84.6139 89.9473 84.9102 89.7832C85.2064 89.6191 85.4411 89.4186 85.6143 89.1816C85.792 88.9447 85.8877 88.7145 85.9014 88.4912L86.4414 89.0996C86.4095 89.291 86.3229 89.5029 86.1816 89.7354C86.0404 89.9678 85.8512 90.1911 85.6143 90.4053C85.3818 90.6149 85.1038 90.7904 84.7803 90.9316C84.4613 91.0684 84.1012 91.1367 83.7002 91.1367C83.1989 91.1367 82.7591 91.0387 82.3809 90.8428C82.0072 90.6468 81.7155 90.3848 81.5059 90.0566C81.3008 89.724 81.1982 89.3525 81.1982 88.9424C81.1982 88.5459 81.2757 88.1973 81.4307 87.8965C81.5856 87.5911 81.8089 87.3382 82.1006 87.1377C82.3923 86.9326 82.7432 86.7777 83.1533 86.6729C83.5635 86.568 84.0215 86.5156 84.5273 86.5156H85.9971ZM91.9922 90.0977C92.293 90.0977 92.571 90.0361 92.8262 89.9131C93.0814 89.79 93.291 89.6214 93.4551 89.4072C93.6191 89.1885 93.7126 88.9401 93.7354 88.6621H94.9385C94.9157 89.0996 94.7676 89.5075 94.4941 89.8857C94.2253 90.2594 93.8721 90.5625 93.4346 90.7949C92.9971 91.0228 92.5163 91.1367 91.9922 91.1367C91.4362 91.1367 90.9508 91.0387 90.5361 90.8428C90.126 90.6468 89.7842 90.3779 89.5107 90.0361C89.2419 89.6943 89.0391 89.3024 88.9023 88.8604C88.7702 88.4137 88.7041 87.9421 88.7041 87.4453V87.1582C88.7041 86.6615 88.7702 86.1921 88.9023 85.75C89.0391 85.3034 89.2419 84.9092 89.5107 84.5674C89.7842 84.2256 90.126 83.9567 90.5361 83.7607C90.9508 83.5648 91.4362 83.4668 91.9922 83.4668C92.571 83.4668 93.0768 83.5853 93.5098 83.8223C93.9427 84.0547 94.2822 84.3737 94.5283 84.7793C94.779 85.1803 94.9157 85.6361 94.9385 86.1465H93.7354C93.7126 85.8411 93.626 85.5654 93.4756 85.3193C93.3298 85.0732 93.1292 84.8773 92.874 84.7314C92.6234 84.5811 92.3294 84.5059 91.9922 84.5059C91.6048 84.5059 91.279 84.5833 91.0146 84.7383C90.7549 84.8887 90.5475 85.0938 90.3926 85.3535C90.2422 85.6087 90.1328 85.8936 90.0645 86.208C90.0007 86.5179 89.9688 86.8346 89.9688 87.1582V87.4453C89.9688 87.7689 90.0007 88.0879 90.0645 88.4023C90.1283 88.7168 90.2354 89.0016 90.3857 89.2568C90.5407 89.512 90.748 89.7171 91.0078 89.8721C91.2721 90.0225 91.6003 90.0977 91.9922 90.0977ZM97.625 80.5V91H96.3604V80.5H97.625ZM97.3242 87.0215L96.7979 87.001C96.8024 86.4951 96.8776 86.028 97.0234 85.5996C97.1693 85.1667 97.3743 84.7907 97.6387 84.4717C97.903 84.1527 98.2174 83.9066 98.582 83.7334C98.9512 83.5557 99.359 83.4668 99.8057 83.4668C100.17 83.4668 100.498 83.5169 100.79 83.6172C101.082 83.7129 101.33 83.8678 101.535 84.082C101.745 84.2962 101.904 84.5742 102.014 84.916C102.123 85.2533 102.178 85.6657 102.178 86.1533V91H100.906V86.1396C100.906 85.7523 100.849 85.4424 100.735 85.21C100.621 84.973 100.455 84.8021 100.236 84.6973C100.018 84.5879 99.7487 84.5332 99.4297 84.5332C99.1152 84.5332 98.8281 84.5993 98.5684 84.7314C98.3132 84.8636 98.0921 85.0459 97.9053 85.2783C97.723 85.5107 97.5794 85.7773 97.4746 86.0781C97.3743 86.3743 97.3242 86.6888 97.3242 87.0215ZM105.445 83.6035V91H104.174V83.6035H105.445ZM104.078 81.6416C104.078 81.4365 104.14 81.2633 104.263 81.1221C104.39 80.9808 104.577 80.9102 104.823 80.9102C105.065 80.9102 105.249 80.9808 105.377 81.1221C105.509 81.2633 105.575 81.4365 105.575 81.6416C105.575 81.8376 105.509 82.0062 105.377 82.1475C105.249 82.2842 105.065 82.3525 104.823 82.3525C104.577 82.3525 104.39 82.2842 104.263 82.1475C104.14 82.0062 104.078 81.8376 104.078 81.6416ZM108.74 85.1826V91H107.476V83.6035H108.672L108.74 85.1826ZM108.439 87.0215L107.913 87.001C107.918 86.4951 107.993 86.028 108.139 85.5996C108.285 85.1667 108.49 84.7907 108.754 84.4717C109.018 84.1527 109.333 83.9066 109.697 83.7334C110.066 83.5557 110.474 83.4668 110.921 83.4668C111.285 83.4668 111.614 83.5169 111.905 83.6172C112.197 83.7129 112.445 83.8678 112.65 84.082C112.86 84.2962 113.02 84.5742 113.129 84.916C113.238 85.2533 113.293 85.6657 113.293 86.1533V91H112.021V86.1396C112.021 85.7523 111.965 85.4424 111.851 85.21C111.737 84.973 111.57 84.8021 111.352 84.6973C111.133 84.5879 110.864 84.5332 110.545 84.5332C110.23 84.5332 109.943 84.5993 109.684 84.7314C109.428 84.8636 109.207 85.0459 109.021 85.2783C108.838 85.5107 108.695 85.7773 108.59 86.0781C108.49 86.3743 108.439 86.6888 108.439 87.0215ZM118.283 91.1367C117.768 91.1367 117.301 91.0501 116.882 90.877C116.467 90.6992 116.109 90.4508 115.809 90.1318C115.512 89.8128 115.285 89.4346 115.125 88.9971C114.965 88.5596 114.886 88.0811 114.886 87.5615V87.2744C114.886 86.6729 114.975 86.1374 115.152 85.668C115.33 85.194 115.572 84.793 115.877 84.4648C116.182 84.1367 116.529 83.8883 116.916 83.7197C117.303 83.5511 117.704 83.4668 118.119 83.4668C118.648 83.4668 119.104 83.5579 119.486 83.7402C119.874 83.9225 120.19 84.1777 120.437 84.5059C120.683 84.8294 120.865 85.2122 120.983 85.6543C121.102 86.0918 121.161 86.5703 121.161 87.0898V87.6572H115.638V86.625H119.896V86.5293C119.878 86.2012 119.81 85.8822 119.691 85.5723C119.577 85.2624 119.395 85.0072 119.145 84.8066C118.894 84.6061 118.552 84.5059 118.119 84.5059C117.832 84.5059 117.568 84.5674 117.326 84.6904C117.085 84.8089 116.877 84.9867 116.704 85.2236C116.531 85.4606 116.396 85.75 116.301 86.0918C116.205 86.4336 116.157 86.8278 116.157 87.2744V87.5615C116.157 87.9124 116.205 88.2428 116.301 88.5527C116.401 88.8581 116.545 89.127 116.731 89.3594C116.923 89.5918 117.153 89.7741 117.422 89.9062C117.695 90.0384 118.005 90.1045 118.352 90.1045C118.798 90.1045 119.176 90.0133 119.486 89.8311C119.796 89.6488 120.067 89.4049 120.3 89.0996L121.065 89.708C120.906 89.9495 120.703 90.1797 120.457 90.3984C120.211 90.6172 119.908 90.7949 119.548 90.9316C119.192 91.0684 118.771 91.1367 118.283 91.1367ZM132.803 85.3262V86.3994H127.416V85.3262H132.803ZM127.621 81.0469V91H126.302V81.0469H127.621ZM133.951 81.0469V91H132.639V81.0469H133.951ZM139.174 91.1367C138.659 91.1367 138.192 91.0501 137.772 90.877C137.358 90.6992 137 90.4508 136.699 90.1318C136.403 89.8128 136.175 89.4346 136.016 88.9971C135.856 88.5596 135.776 88.0811 135.776 87.5615V87.2744C135.776 86.6729 135.865 86.1374 136.043 85.668C136.221 85.194 136.462 84.793 136.768 84.4648C137.073 84.1367 137.419 83.8883 137.807 83.7197C138.194 83.5511 138.595 83.4668 139.01 83.4668C139.538 83.4668 139.994 83.5579 140.377 83.7402C140.764 83.9225 141.081 84.1777 141.327 84.5059C141.573 84.8294 141.756 85.2122 141.874 85.6543C141.993 86.0918 142.052 86.5703 142.052 87.0898V87.6572H136.528V86.625H140.787V86.5293C140.769 86.2012 140.701 85.8822 140.582 85.5723C140.468 85.2624 140.286 85.0072 140.035 84.8066C139.785 84.6061 139.443 84.5059 139.01 84.5059C138.723 84.5059 138.458 84.5674 138.217 84.6904C137.975 84.8089 137.768 84.9867 137.595 85.2236C137.422 85.4606 137.287 85.75 137.191 86.0918C137.096 86.4336 137.048 86.8278 137.048 87.2744V87.5615C137.048 87.9124 137.096 88.2428 137.191 88.5527C137.292 88.8581 137.435 89.127 137.622 89.3594C137.813 89.5918 138.044 89.7741 138.312 89.9062C138.586 90.0384 138.896 90.1045 139.242 90.1045C139.689 90.1045 140.067 90.0133 140.377 89.8311C140.687 89.6488 140.958 89.4049 141.19 89.0996L141.956 89.708C141.797 89.9495 141.594 90.1797 141.348 90.3984C141.102 90.6172 140.799 90.7949 140.438 90.9316C140.083 91.0684 139.661 91.1367 139.174 91.1367ZM147.89 89.7354V85.9277C147.89 85.6361 147.83 85.3831 147.712 85.1689C147.598 84.9502 147.425 84.7816 147.192 84.6631C146.96 84.5446 146.673 84.4854 146.331 84.4854C146.012 84.4854 145.732 84.54 145.49 84.6494C145.253 84.7588 145.066 84.9023 144.93 85.0801C144.798 85.2578 144.731 85.4492 144.731 85.6543H143.467C143.467 85.39 143.535 85.1279 143.672 84.8682C143.809 84.6084 144.005 84.3737 144.26 84.1641C144.52 83.9499 144.829 83.7812 145.189 83.6582C145.554 83.5306 145.96 83.4668 146.406 83.4668C146.944 83.4668 147.418 83.5579 147.828 83.7402C148.243 83.9225 148.566 84.1982 148.799 84.5674C149.036 84.932 149.154 85.39 149.154 85.9414V89.3867C149.154 89.6328 149.175 89.8949 149.216 90.1729C149.261 90.4508 149.327 90.6901 149.414 90.8906V91H148.095C148.031 90.8542 147.981 90.6605 147.944 90.4189C147.908 90.1729 147.89 89.945 147.89 89.7354ZM148.108 86.5156L148.122 87.4043H146.844C146.484 87.4043 146.162 87.4339 145.88 87.4932C145.597 87.5479 145.36 87.6322 145.169 87.7461C144.978 87.86 144.832 88.0036 144.731 88.1768C144.631 88.3454 144.581 88.5436 144.581 88.7715C144.581 89.0039 144.633 89.2158 144.738 89.4072C144.843 89.5986 145 89.7513 145.21 89.8652C145.424 89.9746 145.686 90.0293 145.996 90.0293C146.383 90.0293 146.725 89.9473 147.021 89.7832C147.318 89.6191 147.552 89.4186 147.726 89.1816C147.903 88.9447 147.999 88.7145 148.013 88.4912L148.553 89.0996C148.521 89.291 148.434 89.5029 148.293 89.7354C148.152 89.9678 147.963 90.1911 147.726 90.4053C147.493 90.6149 147.215 90.7904 146.892 90.9316C146.573 91.0684 146.213 91.1367 145.812 91.1367C145.31 91.1367 144.87 91.0387 144.492 90.8428C144.118 90.6468 143.827 90.3848 143.617 90.0566C143.412 89.724 143.31 89.3525 143.31 88.9424C143.31 88.5459 143.387 88.1973 143.542 87.8965C143.697 87.5911 143.92 87.3382 144.212 87.1377C144.504 86.9326 144.854 86.7777 145.265 86.6729C145.675 86.568 146.133 86.5156 146.639 86.5156H148.108ZM152.408 84.7656V91H151.144V83.6035H152.374L152.408 84.7656ZM154.719 83.5625L154.712 84.7383C154.607 84.7155 154.507 84.7018 154.411 84.6973C154.32 84.6882 154.215 84.6836 154.097 84.6836C153.805 84.6836 153.548 84.7292 153.324 84.8203C153.101 84.9115 152.912 85.0391 152.757 85.2031C152.602 85.3672 152.479 85.5632 152.388 85.791C152.301 86.0143 152.244 86.2604 152.217 86.5293L151.861 86.7344C151.861 86.2878 151.905 85.8685 151.991 85.4766C152.082 85.0846 152.221 84.7383 152.408 84.4375C152.595 84.1322 152.832 83.8952 153.119 83.7266C153.411 83.5534 153.757 83.4668 154.158 83.4668C154.249 83.4668 154.354 83.4782 154.473 83.501C154.591 83.5192 154.673 83.5397 154.719 83.5625ZM159.326 83.6035V84.5742H155.327V83.6035H159.326ZM156.681 81.8057H157.945V89.168C157.945 89.4186 157.984 89.6077 158.062 89.7354C158.139 89.863 158.239 89.9473 158.362 89.9883C158.485 90.0293 158.618 90.0498 158.759 90.0498C158.864 90.0498 158.973 90.0407 159.087 90.0225C159.205 89.9997 159.294 89.9814 159.354 89.9678L159.36 91C159.26 91.0319 159.128 91.0615 158.964 91.0889C158.804 91.1208 158.611 91.1367 158.383 91.1367C158.073 91.1367 157.788 91.0752 157.528 90.9521C157.269 90.8291 157.061 90.624 156.906 90.3369C156.756 90.0452 156.681 89.6533 156.681 89.1611V81.8057Z" fill="white"/>
</svg>
