<svg width="175" height="175" viewBox="0 0 175 175" fill="none" xmlns="http://www.w3.org/2000/svg">
<circle cx="87.5" cy="87.5" r="87.5" fill="#22B0FF"/>
<path d="M77.5898 86.5039V92.75C77.3789 93.0625 77.043 93.4141 76.582 93.8047C76.1211 94.1875 75.4844 94.5234 74.6719 94.8125C73.8672 95.0938 72.8281 95.2344 71.5547 95.2344C70.5156 95.2344 69.5586 95.0547 68.6836 94.6953C67.8164 94.3281 67.0625 93.7969 66.4219 93.1016C65.7891 92.3984 65.2969 91.5469 64.9453 90.5469C64.6016 89.5391 64.4297 88.3984 64.4297 87.125V85.8008C64.4297 84.5273 64.5781 83.3906 64.875 82.3906C65.1797 81.3906 65.625 80.543 66.2109 79.8477C66.7969 79.1445 67.5156 78.6133 68.3672 78.2539C69.2188 77.8867 70.1953 77.7031 71.2969 77.7031C72.6016 77.7031 73.6914 77.9297 74.5664 78.3828C75.4492 78.8281 76.1367 79.4453 76.6289 80.2344C77.1289 81.0234 77.4492 81.9219 77.5898 82.9297H75.3281C75.2266 82.3125 75.0234 81.75 74.7188 81.2422C74.4219 80.7344 73.9961 80.3281 73.4414 80.0234C72.8867 79.7109 72.1719 79.5547 71.2969 79.5547C70.5078 79.5547 69.8242 79.6992 69.2461 79.9883C68.668 80.2773 68.1914 80.6914 67.8164 81.2305C67.4414 81.7695 67.1602 82.4219 66.9727 83.1875C66.793 83.9531 66.7031 84.8164 66.7031 85.7773V87.125C66.7031 88.1094 66.8164 88.9883 67.043 89.7617C67.2773 90.5352 67.6094 91.1953 68.0391 91.7422C68.4688 92.2812 68.9805 92.6914 69.5742 92.9727C70.1758 93.2539 70.8398 93.3945 71.5664 93.3945C72.3711 93.3945 73.0234 93.3281 73.5234 93.1953C74.0234 93.0547 74.4141 92.8906 74.6953 92.7031C74.9766 92.5078 75.1914 92.3242 75.3398 92.1523V88.332H71.3906V86.5039H77.5898ZM83.6016 77.9375V95H81.3398V77.9375H83.6016ZM90.75 85.6133V87.4648H83.1094V85.6133H90.75ZM91.9102 77.9375V79.7891H83.1094V77.9375H91.9102ZM95.3906 77.9375L99.8203 86.5039L104.262 77.9375H106.828L100.945 88.625V95H98.6836V88.625L92.8008 77.9375H95.3906Z" fill="white"/>
</svg>
