<svg width="175" height="175" viewBox="0 0 175 175" fill="none" xmlns="http://www.w3.org/2000/svg">
<path d="M175 87.5C175 135.825 135.825 175 87.5 175C39.1751 175 0 135.825 0 87.5C0 39.1751 39.1751 0 87.5 0C135.825 0 175 39.1751 175 87.5Z" fill="#22B0FF"/>
<path d="M38.8672 88.207L32.7734 78.9375H35.4219L39.957 86.332H43.168L42.8047 88.207H38.8672ZM40.0859 88.0312L35.1289 96H32.3164L38.6562 86.0859L40.0859 88.0312ZM44.1406 78.9375V96H41.9023V78.9375H44.1406ZM53.1875 78.9375L47.0703 88.207H43.25L42.8984 86.332H45.9922L50.5273 78.9375H53.1875ZM50.8203 96L45.875 88.0312L47.3164 86.0859L53.6328 96H50.8203ZM56.4922 78.9375H58.6836L64.2734 92.8477L69.8516 78.9375H72.0547L65.1172 96H63.4062L56.4922 78.9375ZM55.7773 78.9375H57.7109L58.0273 89.3438V96H55.7773V78.9375ZM70.8242 78.9375H72.7578V96H70.5078V89.3438L70.8242 78.9375ZM82.0156 90.3398L86.5273 78.9375H89.1289L83.0938 93.1523C82.9219 93.5508 82.7305 93.9375 82.5195 94.3125C82.3086 94.6797 82.0508 95.0078 81.7461 95.2969C81.4414 95.5859 81.0625 95.8164 80.6094 95.9883C80.1641 96.1602 79.6094 96.2461 78.9453 96.2461C78.7578 96.2461 78.5352 96.2344 78.2773 96.2109C78.0195 96.1953 77.8516 96.1758 77.7734 96.1523L77.8438 94.3477C77.9297 94.3633 78.0977 94.3789 78.3477 94.3945C78.5977 94.4023 78.7812 94.4062 78.8984 94.4062C79.3438 94.4062 79.6953 94.3164 79.9531 94.1367C80.2109 93.957 80.418 93.7305 80.5742 93.457C80.7383 93.1758 80.8867 92.8906 81.0195 92.6016L82.0156 90.3398ZM78.1836 78.9375L82.9297 89.5664L83.4922 91.6641L81.5938 91.8047L75.6523 78.9375H78.1836ZM98.1172 89.3086H93.5586V87.4688H98.1172C99 87.4688 99.7148 87.3281 100.262 87.0469C100.809 86.7656 101.207 86.375 101.457 85.875C101.715 85.375 101.844 84.8047 101.844 84.1641C101.844 83.5781 101.715 83.0273 101.457 82.5117C101.207 81.9961 100.809 81.582 100.262 81.2695C99.7148 80.9492 99 80.7891 98.1172 80.7891H94.0859V96H91.8242V78.9375H98.1172C99.4062 78.9375 100.496 79.1602 101.387 79.6055C102.277 80.0508 102.953 80.668 103.414 81.457C103.875 82.2383 104.105 83.1328 104.105 84.1406C104.105 85.2344 103.875 86.168 103.414 86.9414C102.953 87.7148 102.277 88.3047 101.387 88.7109C100.496 89.1094 99.4062 89.3086 98.1172 89.3086ZM109.332 78.9375V96H107.07V78.9375H109.332ZM119.844 78.9375L112.438 88.3242H108.43L108.078 86.4492H111.09L117.043 78.9375H119.844ZM117.57 96L111.16 88.0312L112.426 86.0508L120.336 96H117.57ZM124.742 92.0859L133.145 78.9375H135.406V96H133.145V82.8398L124.742 96H122.492V78.9375H124.742V92.0859Z" fill="white"/>
</svg>
