<svg width="32" height="32" viewBox="0 0 32 32" fill="none" xmlns="http://www.w3.org/2000/svg">
<g clip-path="url(#clip0_2_8)">
<path d="M3.01859 18.7794L14.6478 30.9661L17.3594 28.3779L5.73143 16.1912C5.61966 16.0737 5.55904 15.9167 5.56285 15.7546C5.56666 15.5925 5.6346 15.4385 5.75177 15.3264L17.9397 3.69972L15.3529 0.980665L3.16497 12.6073C2.32728 13.4065 1.84128 14.5056 1.81383 15.663C1.78638 16.8205 2.21973 17.9414 3.01859 18.7794Z" fill="black"/>
<path d="M13.7194 17.273L27.0694 31.2582L29.7822 28.67L17.7333 16.0408L30.3625 3.99185L27.7745 1.27276L13.7818 14.6212C13.6035 14.7912 13.4605 14.9947 13.3608 15.2199C13.2612 15.4452 13.207 15.6879 13.2012 15.9342C13.1954 16.1805 13.2382 16.4255 13.3271 16.6552C13.416 16.8849 13.5493 17.0948 13.7194 17.273Z" fill="black"/>
</g>
<defs>
<clipPath id="clip0_2_8">
<rect width="30" height="30" fill="white" transform="translate(30.6432 31.3485) rotate(-178.653)"/>
</clipPath>
</defs>
</svg>
