<svg width="47" height="47" viewBox="0 0 47 47" fill="none" xmlns="http://www.w3.org/2000/svg">
<path d="M41.8205 15.0985L20.1518 2.01887C18.2652 0.879738 16.0317 0.193068 13.6994 0.0351171C11.3671 -0.122834 9.02715 0.254114 6.93949 1.1241C4.85183 1.99409 3.09813 3.32308 1.87313 4.96348C0.648124 6.60388 -0.000243131 8.49151 2.36321e-05 10.4167V36.5761C-0.00450161 38.5021 0.640953 40.3914 1.8645 42.0334C3.08805 43.6755 4.84166 45.0059 6.93002 45.8765C9.01839 46.7471 11.3595 47.1237 13.6927 46.9643C16.0258 46.805 18.2594 46.1159 20.1447 44.974L41.8252 31.8943C43.4291 30.9273 44.7334 29.6631 45.6324 28.2041C46.5315 26.745 47 25.1322 47 23.4964C47 21.8606 46.5315 20.2478 45.6324 18.7888C44.7334 17.3297 43.4291 16.0655 41.8252 15.0985H41.8205ZM37.5963 27.1557L15.9277 40.2353C15.1055 40.7323 14.132 41.032 13.1153 41.1012C12.0986 41.1704 11.0784 41.0062 10.1683 40.6271C9.25812 40.2479 8.49357 39.6686 7.9596 38.9535C7.42562 38.2383 7.14313 37.4154 7.14353 36.5761V10.4167C7.1326 9.57624 7.41071 8.75031 7.94578 8.03424C8.48084 7.31816 9.25107 6.7411 10.1676 6.36962C10.9436 6.04185 11.8027 5.86936 12.675 5.86618C13.844 5.87093 14.9804 6.18326 15.9181 6.75749L37.5867 19.8372C38.2856 20.2585 38.8539 20.8094 39.2456 21.4451C39.6373 22.0809 39.8415 22.7836 39.8415 23.4964C39.8415 24.2092 39.6373 24.9119 39.2456 25.5477C38.8539 26.1834 38.2856 26.7343 37.5867 27.1557H37.5963Z" fill="black"/>
</svg>
