<svg width="30" height="28" viewBox="0 0 30 28" fill="none" xmlns="http://www.w3.org/2000/svg">
<path d="M27.9125 11.1218L16 0.00583649L13.35 2.48033L25.2612 13.5963C25.3757 13.7035 25.44 13.8487 25.44 14C25.44 14.1513 25.3757 14.2965 25.2612 14.4037L13.35 25.5196L16 28L27.9112 16.884C28.7299 16.1199 29.1899 15.0837 29.1902 14.0031C29.1904 12.9226 28.7308 11.8862 27.9125 11.1218Z" fill="black"/>
<path d="M17.25 12.7622L3.575 0.00583649L0.923752 2.48033L13.2663 14L0.923752 25.5196L3.575 28L17.25 15.2378C17.4242 15.0753 17.5625 14.8823 17.6568 14.6699C17.7511 14.4576 17.7996 14.2299 17.7996 14C17.7996 13.7701 17.7511 13.5424 17.6568 13.33C17.5625 13.1176 17.4242 12.9247 17.25 12.7622V12.7622Z" fill="black"/>
</svg>
