<svg width="47" height="47" viewBox="0 0 47 47" fill="none" xmlns="http://www.w3.org/2000/svg">
<g clip-path="url(#clip0_4_4)">
<path d="M12.7292 0C10.9113 0 9.16794 0.722133 7.88254 2.00754C6.59713 3.29294 5.875 5.03633 5.875 6.85417V40.1458C5.875 41.9637 6.59713 43.707 7.88254 44.9925C9.16794 46.2779 10.9113 47 12.7292 47C14.547 47 16.2904 46.2779 17.5758 44.9925C18.8612 43.707 19.5833 41.9637 19.5833 40.1458V6.85417C19.5833 5.03633 18.8612 3.29294 17.5758 2.00754C16.2904 0.722133 14.547 0 12.7292 0V0ZM15.6667 40.1458C15.6667 40.9249 15.3572 41.6721 14.8063 42.2229C14.2554 42.7738 13.5082 43.0833 12.7292 43.0833C11.9501 43.0833 11.2029 42.7738 10.652 42.2229C10.1011 41.6721 9.79166 40.9249 9.79166 40.1458V6.85417C9.79166 6.07509 10.1011 5.32793 10.652 4.77704C11.2029 4.22615 11.9501 3.91667 12.7292 3.91667C13.5082 3.91667 14.2554 4.22615 14.8063 4.77704C15.3572 5.32793 15.6667 6.07509 15.6667 6.85417V40.1458Z" fill="black"/>
<path d="M34.2708 0C32.453 0 30.7096 0.722133 29.4242 2.00754C28.1388 3.29294 27.4167 5.03633 27.4167 6.85417V40.1458C27.4167 41.9637 28.1388 43.707 29.4242 44.9925C30.7096 46.2779 32.453 47 34.2708 47C36.0887 47 37.8321 46.2779 39.1175 44.9925C40.4029 43.707 41.125 41.9637 41.125 40.1458V6.85417C41.125 5.03633 40.4029 3.29294 39.1175 2.00754C37.8321 0.722133 36.0887 0 34.2708 0V0ZM37.2083 40.1458C37.2083 40.9249 36.8989 41.6721 36.348 42.2229C35.7971 42.7738 35.0499 43.0833 34.2708 43.0833C33.4918 43.0833 32.7446 42.7738 32.1937 42.2229C31.6428 41.6721 31.3333 40.9249 31.3333 40.1458V6.85417C31.3333 6.07509 31.6428 5.32793 32.1937 4.77704C32.7446 4.22615 33.4918 3.91667 34.2708 3.91667C35.0499 3.91667 35.7971 4.22615 36.348 4.77704C36.8989 5.32793 37.2083 6.07509 37.2083 6.85417V40.1458Z" fill="black"/>
</g>
<defs>
<clipPath id="clip0_4_4">
<rect width="47" height="47" fill="white"/>
</clipPath>
</defs>
</svg>
